<?xml version="1.0" encoding="UTF-8" standalone="no"?>
<!-- Created with Inkscape (http://www.inkscape.org/) -->

<svg
   version="1.1"
   id="svg1"
   width="158.21333"
   height="23.853333"
   viewBox="0 0 158.21333 23.853333"
   sodipodi:docname="Infopercept Logo 3rd.eps"
   xmlns:inkscape="http://www.inkscape.org/namespaces/inkscape"
   xmlns:sodipodi="http://sodipodi.sourceforge.net/DTD/sodipodi-0.dtd"
   xmlns="http://www.w3.org/2000/svg"
   xmlns:svg="http://www.w3.org/2000/svg">
  <defs
     id="defs1" />
  <sodipodi:namedview
     id="namedview1"
     pagecolor="#ffffff"
     bordercolor="#000000"
     borderopacity="0.25"
     inkscape:showpageshadow="2"
     inkscape:pageopacity="0.0"
     inkscape:pagecheckerboard="0"
     inkscape:deskcolor="#d1d1d1">
    <inkscape:page
       x="0"
       y="0"
       inkscape:label="1"
       id="page1"
       width="158.21333"
       height="23.853333"
       margin="0"
       bleed="0" />
  </sodipodi:namedview>
  <g
     id="g1"
     inkscape:groupmode="layer"
     inkscape:label="1">
    <g
       id="group-R5">
      <path
         id="path2"
         d="M 160.004,161.195 V 98.9453 H 97.7305 V 161.195 Z M 17.75,18.9453 V 161.195 H 80.0039 V 81.1953 H 160.004 V 18.9258 H 17.75 Z M 80.0039,178.949 H 0.00390625 V 1.21094 H 177.734 V 81.2148 178.949 H 80.0039"
         style="fill:#373b9b;fill-opacity:1;fill-rule:nonzero;stroke:none"
         transform="matrix(0.13333333,0,0,-0.13333333,0,23.853333)" />
      <path
         id="path3"
         d="M 266.77,37.6875 H 239.594 V 169.563 H 266.77 V 37.6875"
         style="fill:#373b9b;fill-opacity:1;fill-rule:nonzero;stroke:none"
         transform="matrix(0.13333333,0,0,-0.13333333,0,23.853333)" />
      <path
         id="path4"
         d="m 314.328,135.68 0.805,-11.309 c 7,8.734 16.387,13.121 28.164,13.121 10.383,0 18.105,-3.043 23.183,-9.148 5.079,-6.102 7.653,-15.207 7.766,-27.364 V 37.6875 h -26.168 v 62.6795 c 0,5.543 -1.195,9.574 -3.625,12.094 -2.426,2.5 -6.437,3.75 -12.035,3.75 -7.371,0 -12.898,-3.133 -16.574,-9.422 V 37.6875 H 289.691 V 135.68 h 24.637"
         style="fill:#373b9b;fill-opacity:1;fill-rule:nonzero;stroke:none"
         transform="matrix(0.13333333,0,0,-0.13333333,0,23.853333)" />
      <path
         id="path5"
         d="m 401.258,37.6875 v 78.7895 h -14.582 v 19.203 h 14.582 v 8.324 c 0,10.976 3.152,19.508 9.461,25.59 6.308,6.07 15.136,9.113 26.484,9.113 3.625,0 8.067,-0.617 13.332,-1.812 l -0.277,-20.29 c -2.168,0.524 -4.82,0.801 -7.977,0.801 -9.832,0 -14.746,-4.629 -14.746,-13.847 v -7.895 h 19.469 V 116.457 H 427.535 V 37.6875 h -26.277"
         style="fill:#373b9b;fill-opacity:1;fill-rule:nonzero;stroke:none"
         transform="matrix(0.13333333,0,0,-0.13333333,0,23.853333)" />
      <path
         id="path6"
         d="m 482.68,85.7344 c 0,-9.3203 1.75,-16.4258 5.261,-21.375 3.489,-4.9258 8.493,-7.3711 15.024,-7.3711 6.363,0 11.297,2.4258 14.859,7.2969 3.567,4.8711 5.356,12.6523 5.356,23.3515 0,9.1446 -1.774,16.2033 -5.356,21.2223 -3.562,5.024 -8.57,7.543 -15.027,7.543 -6.402,0 -11.367,-2.504 -14.856,-7.484 -3.511,-5.008 -5.261,-12.7305 -5.261,-23.1836 z m -26.172,1.8437 c 0,9.7266 1.883,18.3909 5.617,25.9999 3.73,7.617 9.148,13.496 16.164,17.684 7.035,4.14 15.195,6.23 24.508,6.23 13.215,0 24.004,-4.051 32.367,-12.129 8.363,-8.086 13.027,-19.078 13.996,-32.9646 l 0.172,-6.7031 c 0,-15.0273 -4.184,-27.0859 -12.582,-36.1719 -8.398,-9.0937 -19.652,-13.6289 -33.785,-13.6289 -14.129,0 -25.387,4.5352 -33.82,13.5899 -8.418,9.0508 -12.637,21.3711 -12.637,36.957 v 1.1367 0"
         style="fill:#373b9b;fill-opacity:1;fill-rule:nonzero;stroke:none"
         transform="matrix(0.13333333,0,0,-0.13333333,0,23.853333)" />
      <path
         id="path7"
         d="m 627.508,87.6719 c 0,9.1289 -1.613,16.1481 -4.836,21.1131 -3.231,4.945 -7.938,7.41 -14.102,7.41 -8.187,0 -13.847,-3.136 -16.922,-9.425 V 66.6563 c 3.188,-6.461 8.903,-9.6875 17.118,-9.6875 12.48,0.0195 18.742,10.25 18.742,30.7031 z m 26.18,-1.9063 c 0,-15.0781 -3.426,-27.1718 -10.282,-36.2617 -6.847,-9.0937 -16.105,-13.6289 -27.754,-13.6289 -9.914,0 -17.922,3.4375 -24.004,10.3203 V 0 h -26.191 v 135.68 h 24.266 l 0.914,-9.59 c 6.328,7.613 14.613,11.402 24.808,11.402 12.09,0 21.465,-4.461 28.164,-13.398 6.7,-8.946 10.059,-21.262 10.059,-36.9612 v -1.3672 h 0.02"
         style="fill:#373b9b;fill-opacity:1;fill-rule:nonzero;stroke:none"
         transform="matrix(0.13333333,0,0,-0.13333333,0,23.853333)" />
      <path
         id="path8"
         d="m 712,116.402 c -5.187,0 -9.406,-1.757 -12.637,-5.285 -3.222,-3.527 -5.293,-8.547 -6.211,-15.1014 h 36.414 v 2.0899 c -0.117,5.8245 -1.699,10.3245 -4.707,13.4965 -2.996,3.195 -7.293,4.8 -12.859,4.8 z m 3.008,-80.527 c -14.375,0 -26.074,4.4063 -35.11,13.2188 -9.011,8.8085 -13.535,20.5703 -13.535,35.2187 v 2.5391 c 0,9.8593 1.907,18.6684 5.696,26.4104 3.828,7.769 9.199,13.742 16.16,17.941 6.984,4.199 14.933,6.289 23.879,6.289 13.398,0 23.945,-4.234 31.66,-12.672 7.683,-8.457 11.531,-20.441 11.531,-35.9528 V 78.1758 h -62.402 c 0.84,-6.3906 3.398,-11.5391 7.636,-15.3828 4.258,-3.8672 9.649,-5.8047 16.165,-5.8047 10.078,0 17.957,3.6367 23.652,10.957 l 12.84,-14.4101 c -3.926,-5.5469 -9.219,-9.8789 -15.938,-12.9922 -6.668,-3.1172 -14.101,-4.668 -22.234,-4.668"
         style="fill:#373b9b;fill-opacity:1;fill-rule:nonzero;stroke:none"
         transform="matrix(0.13333333,0,0,-0.13333333,0,23.853333)" />
      <path
         id="path9"
         d="m 825.211,111.137 c -3.563,0.484 -6.68,0.73 -9.422,0.73 -9.894,0 -16.398,-3.347 -19.473,-10.047 V 37.6875 H 770.145 V 135.68 h 24.734 l 0.723,-11.664 c 5.246,8.996 12.531,13.496 21.847,13.496 2.891,0 5.594,-0.391 8.133,-1.18 l -0.371,-25.195"
         style="fill:#373b9b;fill-opacity:1;fill-rule:nonzero;stroke:none"
         transform="matrix(0.13333333,0,0,-0.13333333,0,23.853333)" />
      <path
         id="path10"
         d="m 876.844,56.9883 c 4.812,0 8.73,1.3242 11.758,3.9726 3.015,2.6524 4.589,6.1797 4.695,10.586 h 24.551 c -0.078,-6.6446 -1.883,-12.7344 -5.43,-18.2344 -3.563,-5.5312 -8.438,-9.8203 -14.617,-12.8633 -6.192,-3.0429 -13.028,-4.5742 -20.52,-4.5742 -14.011,0 -25.058,4.4414 -33.144,13.3477 -8.086,8.9023 -12.129,21.2031 -12.129,36.9023 v 1.7383 c 0,15.0977 4.004,27.1367 12.031,36.1327 8.047,8.996 19.063,13.496 33.059,13.496 12.246,0 22.09,-3.488 29.472,-10.449 7.391,-6.984 11.16,-16.281 11.278,-27.8711 h -24.551 c -0.106,5.0981 -1.68,9.2581 -4.695,12.4301 -3.008,3.195 -7.004,4.8 -11.946,4.8 -6.093,0 -10.703,-2.242 -13.797,-6.664 -3.117,-4.445 -4.687,-11.6677 -4.687,-21.6364 V 85.375 c 0,-10.1172 1.551,-17.3555 4.629,-21.7617 3.086,-4.4414 7.742,-6.625 14.043,-6.625"
         style="fill:#373b9b;fill-opacity:1;fill-rule:nonzero;stroke:none"
         transform="matrix(0.13333333,0,0,-0.13333333,0,23.853333)" />
      <path
         id="path11"
         d="m 974.93,116.402 c -5.196,0 -9.407,-1.757 -12.637,-5.285 -3.234,-3.527 -5.305,-8.547 -6.223,-15.1014 h 36.418 v 2.0899 c -0.109,5.8245 -1.699,10.3245 -4.699,13.4965 -3.027,3.195 -7.312,4.8 -12.859,4.8 z m 2.988,-80.527 c -14.375,0 -26.086,4.4063 -35.117,13.2188 -9.016,8.8085 -13.528,20.5703 -13.528,35.2187 v 2.5391 c 0,9.8593 1.907,18.6684 5.696,26.4104 3.816,7.769 9.199,13.742 16.16,17.941 6.984,4.199 14.934,6.289 23.867,6.289 13.41,0 23.957,-4.234 31.664,-12.672 7.69,-8.457 11.53,-20.441 11.53,-35.9528 V 78.1758 h -62.393 c 0.84,-6.3906 3.398,-11.5391 7.629,-15.3828 4.258,-3.8672 9.656,-5.8047 16.172,-5.8047 10.078,0 17.949,3.6367 23.642,10.957 l 12.84,-14.4101 c -3.91,-5.5469 -9.22,-9.8789 -15.94,-12.9922 -6.636,-3.1172 -14.089,-4.668 -22.222,-4.668"
         style="fill:#373b9b;fill-opacity:1;fill-rule:nonzero;stroke:none"
         transform="matrix(0.13333333,0,0,-0.13333333,0,23.853333)" />
      <path
         id="path12"
         d="m 1095.09,87.6719 c 0,9.1289 -1.6,16.1481 -4.83,21.1131 -3.22,4.945 -7.93,7.41 -14.09,7.41 -8.19,0 -13.85,-3.136 -16.92,-9.425 V 66.6563 c 3.18,-6.461 8.89,-9.6875 17.1,-9.6875 12.49,0.0195 18.74,10.25 18.74,30.7031 z m 26.2,-1.9063 c 0,-15.0781 -3.44,-27.1718 -10.29,-36.2617 -6.85,-9.0937 -16.11,-13.6289 -27.75,-13.6289 -9.91,0 -17.92,3.4375 -24,10.3203 V 0 h -26.2 v 135.68 h 24.27 l 0.91,-9.59 c 6.33,7.613 14.62,11.402 24.8,11.402 12.1,0 21.48,-4.461 28.18,-13.398 6.7,-8.946 10.06,-21.262 10.06,-36.9612 v -1.3672 h 0.02"
         style="fill:#373b9b;fill-opacity:1;fill-rule:nonzero;stroke:none"
         transform="matrix(0.13333333,0,0,-0.13333333,0,23.853333)" />
      <path
         id="path13"
         d="M 1168.84,159.781 V 135.68 h 16.75 v -19.203 h -16.75 V 67.5664 c 0,-3.6172 0.7,-6.2148 2.08,-7.7812 1.38,-1.5664 4.05,-2.3477 7.96,-2.3477 2.9,0 5.47,0.2031 7.72,0.6328 V 38.2266 c -5.14,-1.5664 -10.42,-2.3516 -15.87,-2.3516 -18.37,0 -27.72,9.2773 -28.08,27.793 v 52.809 h -14.31 v 19.203 h 14.31 v 24.101 h 26.19"
         style="fill:#373b9b;fill-opacity:1;fill-rule:nonzero;stroke:none"
         transform="matrix(0.13333333,0,0,-0.13333333,0,23.853333)" />
    </g>
  </g>
</svg>
